<svg class="img-fluid" id="outputsvg" xmlns="http://www.w3.org/2000/svg" style="transform: matrix(0.455166, 0, 0, 0.455166, 0, 0); transform-origin: 50% 50%; cursor: move; transition: transform 200ms ease-in-out 0s;" width="550" height="950" viewBox="0 0 5500 9500"><g id="l2WWOyotlbG1OZbyeWylNbA" fill="rgb(31,33,38)" style="transform: none;"><g style="transform: none;"><path id="p7k4rHDvb" d="M880 9479 c0 -28 46 -117 102 -199 41 -60 47 -65 84 -68 91 -7 121 73 68 181 l-26 52 41 -45 c22 -25 40 -51 41 -57 0 -22 74 -15 111 10 81 55 145 102 151 112 23 32 9 35 -172 35 -180 0 -180 0 -181 -22 l0 -23 -11 23 c-10 21 -17 22 -110 22 -93 0 -98 -1 -98 -21z"></path><path id="p1HEpUafyy" d="M1543 9477 c-25 -17 -32 -29 -33 -56 l0 -33 127 5 126 5 -94 -60 c-132 -86 -301 -201 -413 -282 -90 -65 -96 -71 -96 -104 0 -28 7 -41 31 -61 37 -32 61 -91 59 -149 0 -24 6 -52 15 -64 8 -13 15 -32 15 -44 0 -37 90 -106 185 -143 47 -19 90 -40 97 -48 10 -13 33 -14 138 -8 101 5 129 4 144 -8 19 -14 19 -15 -4 -27 -14 -8 -51 -12 -88 -11 -92 3 -126 -11 -156 -66 -28 -50 -35 -132 -15 -176 10 -22 6 -33 -31 -88 -24 -35 -72 -103 -108 -151 -64 -84 -67 -87 -115 -93 -32 -5 -53 -3 -60 4 -8 8 -11 48 -11 114 6 348 3 461 -9 469 -6 4 -39 8 -73 8 -59 0 -61 -1 -77 -35 -9 -19 -20 -54 -23 -78 -4 -23 -15 -61 -25 -84 -17 -40 -17 -45 -2 -80 13 -32 15 -67 10 -211 -2 -99 -9 -178 -15 -184 -19 -19 -216 -68 -422 -103 -113 -20 -221 -41 -240 -47 -50 -15 -104 -52 -136 -93 l-27 -36 12 -137 c13 -146 26 -184 83 -250 15 -18 28 -37 28 -43 0 -5 11 -27 25 -49 21 -33 31 -40 58 -40 20 0 47 10 67 25 19 14 56 32 82 40 60 17 82 29 143 75 28 21 77 49 110 63 53 22 60 29 63 56 3 26 -5 39 -47 81 -49 49 -50 51 -28 59 40 15 72 1 137 -61 l62 -60 122 5 c66 3 162 13 211 22 73 14 191 18 610 24 286 4 521 8 523 9 10 7 -2 78 -19 106 -17 30 -19 40 -9 75 6 23 15 41 19 41 5 0 23 27 40 60 23 44 31 72 29 101 -3 54 21 75 94 83 34 4 59 2 63 -4 5 -8 194 -16 195 -7 1 1 5 72 10 157 5 85 14 191 19 235 6 44 10 134 10 200 1 69 10 183 22 268 l22 147 31 0 c19 1 44 12 66 30 19 17 46 30 61 30 15 0 42 6 60 14 19 7 58 16 88 20 30 4 67 14 83 22 32 16 202 34 334 34 61 0 98 6 145 24 61 23 64 25 67 60 l3 36 -191 0 c-147 0 -199 3 -227 15 -19 8 -65 15 -102 15 -36 0 -82 4 -101 9 -19 5 -70 12 -112 16 -90 8 -131 31 -112 62 6 10 29 22 50 26 46 9 37 10 194 -3 116 -10 130 -9 201 11 75 22 78 22 145 5 38 -10 117 -20 177 -23 l107 -6 0 36 c0 20 -6 39 -12 44 -14 9 -84 28 -162 44 -27 6 -61 20 -76 31 -22 16 -37 19 -76 15 -27 -3 -105 -11 -174 -17 -113 -10 -210 -21 -312 -36 l-38 -6 15 36 c21 51 19 93 -5 106 -11 6 -20 17 -20 25 0 8 -7 15 -15 15 -10 0 -15 11 -15 35 l0 35 -130 0 -130 0 0 -44 c0 -64 -7 -76 -45 -76 -36 0 -39 -5 -50 -75 -16 -103 -26 -133 -48 -139 -12 -3 -62 -6 -110 -6 -78 0 -121 -9 -137 -29 -26 -32 -257 -43 -343 -17 l-42 13 40 7 c22 4 63 13 90 20 103 29 341 66 418 66 24 0 27 3 27 35 0 19 -4 35 -10 35 -18 0 -11 18 9 23 11 2 21 15 23 28 2 19 14 28 58 42 57 18 90 55 90 98 0 18 -13 19 -415 19 -366 0 -419 -2 -440 -16 -23 -15 -25 -15 -25 0 0 14 -18 16 -152 15 -139 -1 -156 -3 -185 -22z m306 -30 c-19 -15 -79 -47 -79 -43 0 8 62 46 74 46 5 0 7 -1 5 -3z m216 -547 c81 -6 125 -15 167 -34 31 -14 59 -29 62 -34 3 -5 -7 -20 -22 -34 l-27 -25 -75 14 c-41 8 -148 16 -238 18 -138 3 -167 6 -190 22 -15 10 -38 23 -52 29 l-25 12 30 12 c75 30 184 36 370 20z m499 -964 c25 -10 36 -22 41 -46 4 -17 5 -33 3 -35 -3 -3 -99 16 -155 30 -22 5 -22 6 10 35 36 33 53 36 101 16z"></path><path id="pUXf78v8l" d="M2952 7713 c3 -36 6 -39 55 -55 28 -10 96 -24 150 -32 54 -8 116 -21 138 -29 22 -8 62 -17 90 -22 31 -4 44 -10 35 -14 -30 -15 -394 -101 -428 -101 -25 0 -139 -75 -152 -100 -6 -10 -10 -36 -10 -57 0 -21 -4 -43 -8 -48 -11 -16 -114 -45 -161 -45 -27 0 -54 -8 -72 -21 -29 -20 -162 -51 -301 -68 -73 -9 -134 -39 -198 -97 -22 -20 -48 -34 -63 -34 -15 0 -46 -9 -69 -19 -24 -10 -70 -27 -103 -36 -33 -10 -64 -23 -70 -29 -16 -20 -85 -44 -150 -53 -60 -8 -60 -8 -88 -61 -40 -74 -62 -86 -156 -83 l-78 1 -46 -45 c-39 -39 -51 -46 -79 -43 -29 3 -33 7 -36 36 -3 31 -5 32 -47 32 -24 0 -46 -4 -50 -9 -3 -5 -34 4 -70 20 -35 16 -80 29 -100 29 -32 0 -35 -3 -35 -28 0 -16 -7 -37 -15 -48 -21 -28 -19 -87 5 -117 11 -14 20 -31 20 -38 0 -9 20 -11 83 -6 45 3 89 8 98 12 12 4 18 -1 21 -20 3 -14 1 -28 -4 -31 -10 -6 -8 -29 9 -124 6 -36 12 -46 31 -48 21 -3 22 -8 22 -92 0 -75 4 -99 26 -147 22 -48 27 -71 25 -133 -1 -66 -5 -79 -29 -110 -20 -24 -31 -51 -35 -86 -5 -49 -45 -175 -66 -211 -9 -16 -10 -15 -11 10 0 24 -4 27 -34 27 -58 0 -144 -54 -248 -158 -54 -53 -106 -100 -115 -105 -30 -16 -43 -39 -43 -77 0 -49 15 -60 78 -60 45 0 60 5 94 33 52 41 83 70 135 131 24 26 43 43 43 38 0 -6 -5 -14 -10 -17 -6 -3 -29 -34 -52 -68 -23 -34 -90 -110 -150 -170 -101 -100 -108 -110 -108 -146 0 -38 1 -40 35 -43 l36 -3 -36 -55 c-24 -38 -35 -66 -35 -92 0 -37 1 -38 35 -38 29 0 38 6 63 43 35 49 79 93 88 85 3 -3 1 -14 -5 -25 -6 -10 -30 -76 -53 -148 -23 -71 -54 -157 -70 -190 -34 -73 -36 -120 -6 -152 18 -20 20 -26 9 -46 -7 -13 -11 -48 -9 -82 l3 -60 47 -3 c40 -3 49 0 62 20 17 27 62 201 71 273 13 111 30 174 66 246 22 41 42 96 45 122 6 42 10 47 32 47 21 0 23 -3 18 -22 -4 -13 -11 -57 -17 -98 -5 -41 -16 -122 -24 -180 -8 -58 -17 -136 -20 -174 -4 -48 -19 -103 -50 -182 -53 -133 -60 -202 -23 -228 27 -20 158 -22 176 -4 7 7 12 34 12 60 0 56 24 123 56 159 21 22 24 35 24 100 0 40 -5 136 -12 212 -10 114 -10 144 1 170 8 18 19 66 26 107 9 56 14 69 18 50 9 -34 18 -195 18 -300 0 -46 4 -101 10 -122 9 -36 12 -38 49 -38 36 0 40 3 40 25 0 19 7 26 28 31 53 13 87 48 100 104 20 86 15 173 -13 240 -25 60 -31 117 -20 181 5 26 2 48 -10 73 -10 20 -15 42 -12 49 11 29 100 47 196 40 115 -8 121 -3 121 86 0 37 -5 72 -11 78 -6 6 -12 37 -13 69 -1 33 -11 74 -21 94 -33 64 -44 123 -28 154 11 21 20 26 41 24 15 -2 31 -12 37 -24 6 -12 23 -40 38 -62 15 -21 31 -57 34 -78 7 -42 33 -83 98 -154 48 -51 125 -161 125 -176 0 -15 34 -44 51 -44 8 0 25 -9 39 -20 15 -12 41 -20 64 -20 l39 0 -6 91 c-6 76 -12 100 -37 144 -17 29 -37 58 -46 66 -19 16 -44 63 -44 84 0 9 -22 42 -49 73 -82 96 -85 122 -13 122 25 0 43 9 68 34 29 29 34 41 34 83 0 28 -10 76 -22 109 -16 45 -21 83 -22 159 l-1 100 -30 3 c-37 5 -51 16 -58 45 -2 12 -23 94 -45 182 -22 88 -44 180 -47 206 l-7 45 67 -4 c50 -3 70 -1 83 11 9 9 29 20 43 26 26 9 27 9 33 -40 7 -48 8 -49 40 -49 45 0 176 61 224 104 45 41 52 43 52 16 0 -10 14 -33 30 -50 17 -17 30 -41 30 -54 0 -12 7 -43 16 -69 15 -44 18 -47 50 -47 27 0 34 4 34 20 0 16 7 20 30 20 17 0 30 4 30 9 0 16 153 167 199 197 125 82 160 102 194 115 20 7 37 19 37 26 0 8 14 13 39 13 22 0 46 3 55 6 9 3 16 2 16 -2 0 -5 -39 -33 -87 -63 -47 -30 -129 -89 -182 -131 -53 -42 -114 -85 -136 -96 -22 -10 -59 -43 -82 -72 -36 -44 -43 -60 -43 -97 l0 -45 43 0 c24 0 49 6 55 12 7 7 45 20 85 29 112 26 300 93 343 123 37 25 39 25 42 7 4 -23 39 -27 277 -35 188 -6 226 3 337 80 46 32 75 48 64 36 -10 -12 -21 -41 -23 -65 l-5 -44 38 -6 c58 -10 242 -8 262 2 9 5 35 14 58 20 29 8 47 21 65 47 14 22 47 50 79 67 l55 30 -42 -44 c-32 -33 -43 -53 -43 -76 0 -27 4 -31 38 -37 57 -9 171 -7 192 4 17 9 109 126 137 174 7 11 13 40 13 63 0 38 -2 42 -27 45 -25 3 -20 8 50 53 42 28 95 61 117 75 38 23 40 27 40 71 l0 47 -47 5 c-178 21 -161 23 -248 -26 -44 -25 -92 -55 -108 -67 -15 -12 -55 -35 -90 -52 -34 -17 -69 -37 -78 -45 -21 -18 -151 -83 -166 -83 -6 0 -40 -19 -75 -43 -56 -38 -128 -73 -128 -62 0 10 152 116 201 140 30 15 63 35 74 44 25 22 103 68 235 138 30 16 73 41 95 56 32 22 51 27 101 27 61 0 62 1 108 50 33 35 46 57 46 79 0 52 -8 61 -59 61 -25 1 -64 7 -86 15 -63 23 -86 18 -150 -30 -41 -30 -62 -40 -66 -32 -10 19 -17 127 -7 127 4 0 8 15 8 34 0 29 -4 36 -31 45 -18 6 -62 11 -98 11 -109 1 -183 22 -261 74 -39 26 -130 74 -202 107 -115 52 -146 62 -228 71 -54 6 -98 16 -102 23 -10 16 -120 69 -173 84 -22 6 -120 11 -218 11 l-178 0 3 -37z m1148 -680 c0 -10 -19 -39 -43 -65 -33 -37 -79 -65 -222 -138 -146 -75 -311 -150 -415 -187 -8 -3 12 14 45 37 66 48 144 90 248 134 65 28 67 30 67 65 0 27 6 39 23 47 12 6 36 18 52 27 17 8 43 21 59 29 49 22 66 32 66 40 0 5 15 8 33 8 17 0 39 5 47 10 23 15 40 12 40 -7z m-2470 -427 c0 -8 -12 -24 -27 -35 -16 -12 -34 -26 -40 -31 -8 -6 -13 -33 -13 -62 l0 -52 -25 34 c-14 19 -25 37 -25 41 0 4 21 32 46 63 44 53 84 73 84 42z m-156 -424 c14 -8 -24 -21 -66 -21 -39 -1 -46 7 -26 27 11 11 69 8 92 -6z m-470 -1119 c-19 -38 -34 -74 -34 -80 0 -7 -9 -13 -20 -13 -20 0 -20 0 0 38 22 40 79 122 85 122 2 0 -12 -30 -31 -67z"></path><path id="pVCE2MU9d" d="M4510 7305 c0 -32 2 -35 30 -35 30 0 30 0 14 25 -8 13 -13 29 -9 35 3 6 -3 10 -14 10 -17 0 -21 -6 -21 -35z"></path><path id="p1FfREpkZL" d="M2219 6143 c-46 -5 -49 -14 -49 -158 0 -73 4 -115 12 -123 7 -7 31 -12 54 -12 39 0 46 4 88 54 82 95 125 203 94 234 -12 12 -113 14 -199 5z"></path><path id="pQAqTJLs3" d="M3580 6126 c-53 -21 -55 -24 -58 -63 -3 -46 30 -123 77 -179 14 -18 42 -61 61 -95 19 -35 67 -97 107 -137 56 -57 83 -96 123 -175 52 -102 112 -201 130 -212 5 -3 23 -42 40 -88 17 -45 40 -104 50 -132 16 -42 48 -172 74 -300 6 -30 6 -30 -36 -30 l-42 0 -15 -85 c-12 -71 -12 -114 -3 -255 7 -93 19 -201 27 -239 14 -63 14 -71 0 -85 -13 -14 -15 -13 -15 4 0 11 -8 41 -17 68 -16 43 -20 47 -50 47 l-33 0 1 -126 c2 -126 2 -126 30 -152 37 -32 115 -179 132 -246 10 -37 20 -54 38 -63 17 -9 25 -23 29 -50 5 -38 5 -38 56 -41 78 -5 83 14 58 200 -5 39 -2 52 15 74 15 19 21 41 21 75 0 87 14 90 27 4 6 -44 24 -116 38 -160 15 -44 28 -86 31 -92 2 -8 20 -13 44 -13 22 0 57 -7 77 -15 42 -18 98 -19 142 -4 27 9 31 16 31 46 0 24 -9 47 -29 72 -35 45 -91 153 -66 130 9 -9 34 -41 54 -70 36 -52 39 -54 89 -57 28 -2 70 2 93 8 l41 11 -4 50 c-4 34 -15 63 -35 92 -17 23 -58 89 -93 147 -35 58 -84 128 -109 157 -25 28 -64 84 -87 125 -39 68 -40 73 -22 76 19 3 20 9 15 68 -2 35 -2 64 2 64 11 0 249 -213 267 -238 11 -17 25 -22 56 -22 l40 0 -4 55 -5 56 -194 194 c-151 152 -205 213 -245 279 -55 89 -50 101 16 41 75 -69 88 -73 193 -74 l97 0 -1 32 c0 26 -8 38 -42 62 -28 21 -52 51 -73 94 -18 34 -46 80 -63 102 l-32 39 51 0 c43 0 50 3 50 20 0 30 28 38 115 29 140 -13 135 -15 135 29 0 44 -23 71 -82 95 -46 19 -198 120 -225 150 -34 36 -103 177 -87 177 9 0 14 12 14 35 0 26 -7 41 -27 58 -15 12 -43 37 -64 55 -26 23 -46 32 -72 32 -31 0 -36 3 -42 31 -4 18 -3 35 4 42 20 20 13 109 -12 152 -19 35 -28 40 -62 43 -21 2 -49 -2 -61 -8 -16 -9 -27 -9 -42 -1 -33 18 -90 13 -121 -10 l-28 -21 -63 32 c-34 17 -90 36 -124 41 -36 6 -80 22 -109 39 -60 37 -118 39 -197 6z m896 -1870 c4 -11 2 -16 -4 -12 -10 6 -43 103 -42 123 1 8 33 -70 46 -111z"></path><path id="p1DZn0fvGD" d="M2749 6083 c-25 -6 -31 -99 -35 -603 -4 -495 -39 -1104 -64 -1134 -9 -11 -10 -40 -5 -109 l7 -93 -40 4 c-39 4 -42 2 -59 -35 -13 -27 -31 -44 -63 -60 -95 -48 -348 -96 -475 -91 -79 3 -79 3 -30 11 59 9 150 34 185 51 35 16 40 86 10 135 -20 32 -24 33 -68 29 -26 -3 -68 -14 -93 -26 -26 -12 -65 -24 -88 -28 -32 -5 -45 -14 -62 -40 -20 -34 -22 -34 -92 -34 -51 0 -82 -5 -107 -19 -34 -18 -36 -18 -105 2 -38 10 -88 29 -110 40 -29 15 -60 21 -110 21 l-70 1 -3 -33 c-2 -19 4 -54 12 -80 9 -25 16 -65 16 -88 0 -62 7 -74 46 -74 19 0 34 3 34 8 1 4 11 20 24 36 l24 28 21 -21 c29 -29 91 -29 98 -1 7 27 24 25 99 -11 36 -17 81 -33 102 -35 20 -3 93 -23 162 -44 120 -38 197 -51 361 -65 67 -6 85 -3 140 18 77 30 197 52 233 43 15 -4 44 -22 65 -41 20 -19 57 -43 82 -55 65 -30 116 -70 140 -110 12 -19 76 -91 143 -160 134 -137 203 -238 218 -320 8 -45 6 -55 -26 -119 -55 -108 -96 -281 -67 -281 4 0 20 18 35 40 21 32 45 49 119 84 123 59 275 167 366 259 82 83 90 104 91 234 l0 71 -66 7 -66 8 -39 -39 c-35 -36 -40 -48 -59 -144 -12 -58 -33 -130 -48 -160 l-27 -55 -3 80 c-3 93 -42 231 -77 273 -21 26 -26 47 -41 170 -9 77 -32 92 -144 92 -84 0 -90 1 -141 36 -30 20 -72 45 -94 56 -79 41 -254 173 -242 184 2 2 32 -12 68 -30 35 -19 93 -44 129 -55 94 -30 347 -71 483 -78 l117 -6 0 37 c0 21 -5 46 -11 57 -5 11 -9 30 -7 42 2 18 7 13 25 -24 12 -25 24 -62 28 -82 4 -20 13 -41 20 -47 8 -6 47 -14 88 -17 64 -5 83 -2 131 18 l57 23 -3 51 -3 50 -66 -1 -66 -2 -51 87 c-50 83 -112 152 -199 219 -23 18 -48 32 -56 32 -24 0 -33 121 -12 162 9 18 19 59 22 91 5 50 3 62 -16 87 -11 16 -21 33 -21 39 0 5 -15 27 -33 48 -28 34 -35 54 -50 144 -10 57 -22 116 -26 131 -5 15 -7 112 -4 215 4 129 0 244 -11 367 -14 162 -19 185 -45 235 l-29 56 -56 3 c-49 3 -59 0 -82 -23 l-27 -27 5 -149 c5 -120 9 -154 22 -168 9 -10 20 -36 23 -57 4 -21 14 -52 24 -69 23 -40 40 -152 27 -185 -5 -14 -11 -128 -12 -254 -3 -208 -2 -233 16 -275 34 -82 40 -89 98 -134 50 -39 58 -50 64 -88 22 -156 26 -169 52 -169 9 0 14 -11 14 -35 0 -25 8 -44 25 -60 l24 -25 -84 0 c-62 0 -100 -6 -141 -21 -55 -21 -59 -21 -109 -5 -30 9 -86 16 -132 16 l-80 0 -12 71 c-15 82 -16 380 -1 549 14 171 30 544 30 720 0 197 0 196 51 192 38 -4 39 -4 39 29 0 34 14 97 29 134 5 11 14 49 20 85 7 36 19 87 28 114 15 47 15 148 -1 163 -7 7 -298 12 -327 6z"></path><path id="pvs8CwPUp" d="M845 5936 c-28 -28 -61 -67 -73 -87 -26 -43 -70 -64 -157 -74 -38 -4 -73 -16 -96 -31 -25 -17 -63 -28 -125 -37 l-89 -13 -3 -36 c-3 -35 -1 -37 33 -44 33 -6 117 -3 339 14 l98 7 74 78 c41 43 74 84 74 90 0 7 11 34 25 61 14 27 25 67 25 88 0 38 0 38 -37 36 -31 -1 -47 -11 -88 -52z"></path><path id="p148a47Zxr" d="M2471 5953 c-49 -123 -59 -330 -23 -463 11 -41 23 -106 26 -143 3 -37 8 -72 11 -77 10 -17 121 -12 135 5 15 18 7 163 -10 196 -7 11 -14 89 -16 172 -3 84 -12 194 -20 245 l-16 92 -38 0 c-32 0 -39 -4 -49 -27z"></path><path id="pFG5W7A00" d="M1570 5020 c0 -42 23 -71 231 -294 41 -45 90 -103 109 -131 18 -27 49 -69 68 -93 31 -38 39 -43 71 -40 l36 3 -3 100 c-2 97 -3 100 -38 145 -19 25 -87 98 -151 163 -130 133 -212 187 -281 187 l-42 0 0 -40z"></path><path id="pn8xixVKP" d="M3775 4890 c-28 -45 -43 -832 -17 -877 15 -27 72 -32 91 -9 11 13 33 94 61 227 8 37 11 124 8 265 -4 184 -7 217 -27 279 -42 129 -40 125 -77 125 -18 0 -35 -4 -39 -10z"></path><path id="pjV1KaOxE" d="M1632 3726 c3 -87 1 -96 -24 -132 -93 -137 -101 -204 -30 -268 51 -46 229 -193 298 -245 28 -22 62 -53 77 -70 19 -24 37 -33 71 -37 l46 -7 0 120 c0 133 12 188 65 293 33 66 87 122 179 188 42 29 46 37 46 73 0 48 -20 59 -112 59 l-60 0 -96 -86 c-54 -47 -119 -113 -145 -145 -46 -57 -98 -95 -111 -82 -3 4 -6 54 -6 112 0 101 -2 110 -36 181 -46 97 -87 140 -132 140 l-34 0 4 -94z"></path><path id="p4pYOFwko" d="M2288 3340 c-35 -21 -18 -213 22 -255 25 -26 24 -27 -33 -40 -20 -4 -31 -15 -39 -35 -5 -17 -14 -30 -19 -30 -6 0 -31 -19 -57 -43 -26 -24 -66 -58 -89 -75 -36 -28 -43 -41 -53 -90 -7 -31 -16 -65 -21 -74 -8 -15 -5 -18 15 -18 14 0 40 9 58 20 18 11 40 20 49 20 18 0 75 24 101 42 27 19 119 -14 141 -51 l17 -29 -57 -6 c-32 -3 -83 -5 -113 -5 -30 0 -68 -7 -84 -16 -15 -8 -34 -15 -42 -15 -23 0 -42 -42 -60 -130 -9 -47 -25 -97 -35 -112 -28 -41 -31 -70 -20 -207 9 -107 14 -129 36 -160 14 -21 25 -47 25 -58 0 -21 -46 -63 -69 -63 -6 0 -11 -10 -11 -23 0 -22 -3 -23 -53 -19 -75 6 -80 -3 -71 -126 l7 -101 52 -45 c52 -45 87 -64 155 -84 47 -14 246 -15 289 -1 18 6 65 12 105 13 69 1 71 2 74 28 2 15 -4 47 -12 73 -10 28 -16 80 -16 135 0 79 -2 91 -20 100 -11 6 -20 19 -20 28 0 22 -42 63 -90 89 -27 15 -36 27 -38 51 l-3 32 54 0 c38 0 62 6 78 18 13 11 36 22 52 26 24 6 27 11 27 50 0 35 -6 50 -31 77 l-32 34 39 5 c34 4 39 9 42 33 3 24 8 27 38 27 33 0 34 1 34 39 0 22 -4 42 -9 45 -5 4 -37 9 -70 13 -65 6 -76 19 -13 15 23 -2 59 7 95 22 56 25 57 27 57 66 0 37 -3 42 -35 56 -19 7 -47 14 -63 14 -53 0 -92 19 -92 46 0 14 6 24 14 24 8 0 17 11 20 24 6 24 8 25 76 19 54 -5 74 -2 94 10 26 17 56 22 114 19 24 -1 44 -13 72 -42 22 -22 46 -40 54 -40 8 0 23 -9 33 -19 10 -11 30 -22 45 -26 29 -7 100 -72 131 -118 10 -16 27 -27 40 -27 21 0 22 4 20 81 -1 80 -2 82 -49 147 -86 120 -237 238 -347 272 -23 7 -73 27 -110 44 -67 30 -68 32 -62 61 4 17 9 71 12 121 4 79 2 93 -16 115 -18 22 -26 24 -128 26 -59 1 -126 5 -148 8 -22 3 -48 1 -57 -5z"></path><path id="p13zGp7jQO" d="M2868 2395 c-3 -3 -32 -9 -64 -13 l-59 -7 -3 -42 c-3 -42 -3 -42 -50 -48 -26 -4 -64 -14 -84 -23 -30 -14 -38 -23 -38 -44 0 -15 11 -38 24 -52 29 -32 95 -35 141 -8 20 13 42 17 67 14 43 -5 112 24 148 63 27 29 39 110 21 144 -9 16 -21 21 -55 21 -23 0 -45 -2 -48 -5z"></path><path id="p1A0D9N3AI" d="M3279 1963 c0 -5 -5 -60 -10 -123 -22 -274 -26 -306 -38 -330 -8 -14 -40 -53 -72 -87 -70 -73 -109 -149 -109 -214 0 -65 -17 -106 -48 -118 -35 -14 -58 -29 -92 -63 -23 -23 -38 -28 -77 -28 -40 0 -54 5 -82 31 -33 29 -130 79 -156 79 -7 0 -37 20 -67 45 -30 25 -60 45 -65 45 -6 0 -17 7 -24 17 -8 9 -27 23 -44 31 -174 84 -200 104 -225 175 -9 27 -10 27 -97 27 -49 -1 -115 -7 -148 -15 -33 -8 -62 -11 -66 -7 -3 4 -11 31 -17 60 -15 69 -61 161 -89 179 -14 9 -25 29 -28 51 -13 81 -14 82 -44 82 -41 0 -93 -31 -84 -50 4 -8 7 -36 7 -61 -1 -56 -41 -139 -119 -251 -30 -43 -62 -103 -71 -133 -16 -50 -17 -67 -6 -163 11 -95 45 -258 56 -270 3 -2 31 3 63 11 l58 14 3 -30 c2 -16 -1 -34 -7 -40 -6 -6 -11 -26 -11 -44 0 -23 -5 -33 -15 -33 -26 0 -16 -43 25 -107 31 -50 45 -63 65 -63 20 0 25 -5 25 -25 0 -29 13 -43 95 -106 95 -73 138 -97 350 -196 221 -104 324 -142 393 -148 26 -2 101 -10 168 -16 69 -7 154 -9 198 -4 98 9 122 29 202 163 35 58 91 131 140 183 97 103 125 156 159 306 20 91 25 138 25 252 0 105 5 160 20 223 11 46 20 108 20 138 1 30 7 98 14 150 8 66 9 96 2 99 -16 6 -26 23 -26 45 0 10 -11 31 -25 48 -23 27 -25 37 -25 132 0 121 -11 146 -66 146 -19 0 -34 -3 -35 -7z"></path><path id="p18thr7tlj" d="M2676 1818 c-23 -14 -42 -33 -46 -48 -4 -14 -23 -60 -44 -103 -25 -55 -36 -91 -36 -125 l0 -47 68 -19 c40 -11 113 -20 185 -23 64 -2 117 -8 117 -14 0 -13 68 -11 83 2 7 6 35 23 62 37 47 25 50 29 50 66 0 36 -3 40 -35 51 -19 6 -29 14 -21 16 7 3 15 25 18 51 5 45 4 47 -22 54 -15 4 -53 4 -85 1 -44 -5 -61 -3 -70 8 -7 8 -18 15 -26 15 -8 0 -14 16 -16 48 l-3 47 -70 3 c-57 2 -77 -2 -109 -20z"></path></g></g><g id="l7hN3AdPzSFEpgpV2Yo18Nf" fill="rgb(75,99,118)" style="transform: none;"><g style="transform: none;"><path id="pCytzx4dm" d="M850 9491 c0 -5 7 -28 15 -52 21 -59 108 -398 134 -526 l22 -102 -30 -69 c-45 -106 -55 -169 -41 -255 13 -75 59 -250 87 -326 l16 -44 22 54 c12 30 25 73 28 96 12 72 37 113 68 113 57 0 59 -4 60 -114 1 -137 1 -123 -6 -286 -8 -171 -2 -196 47 -202 18 -2 56 1 85 7 47 9 55 15 105 80 147 189 179 257 149 313 -17 32 -13 66 14 115 31 56 64 69 149 61 53 -5 65 -3 96 18 50 34 51 62 3 86 -39 20 -59 20 -199 7 -55 -5 -73 -3 -82 8 -7 8 -50 29 -97 48 -95 37 -185 106 -185 143 0 12 -7 31 -15 43 -11 16 -13 28 -5 48 8 20 6 34 -10 65 -11 22 -20 46 -20 54 0 8 -17 28 -37 45 -20 17 -33 34 -29 38 48 48 411 293 684 461 39 24 78 52 88 63 17 18 16 19 -37 19 -56 0 -149 -28 -178 -54 -11 -10 -48 -16 -115 -20 -98 -5 -99 -5 -70 13 16 10 38 28 48 40 l19 21 -96 0 -95 0 -64 -43 c-35 -24 -81 -55 -102 -70 -42 -29 -56 -33 -56 -17 0 6 -21 37 -47 70 -46 56 -50 59 -96 59 l-48 1 51 -93 c27 -52 50 -101 50 -110 0 -18 -48 -59 -64 -54 -16 5 -101 134 -133 200 -24 49 -31 57 -55 57 -15 0 -28 -4 -28 -9z"></path><path id="pF8ivV3MR" d="M2714 9465 c-15 -28 -29 -38 -69 -50 -64 -19 -74 -26 -72 -50 2 -15 -7 -22 -38 -29 -22 -4 -65 -15 -95 -24 -49 -13 -52 -16 -30 -23 14 -4 43 -8 65 -8 22 -1 51 -8 65 -16 l25 -14 -25 0 c-57 -1 -291 -34 -365 -53 -44 -11 -114 -26 -155 -34 -79 -15 -179 -40 -186 -47 -3 -2 28 -7 68 -11 40 -4 96 -14 123 -21 73 -20 288 -23 350 -5 28 8 52 17 55 21 16 20 59 29 137 29 48 0 98 3 110 6 22 6 32 36 48 139 12 79 16 82 36 29 11 -27 19 -60 19 -74 l1 -25 13 25 c8 14 17 77 21 148 l8 122 -45 0 c-41 0 -46 -3 -64 -35z"></path><path id="pvJdYLkcD" d="M3020 9468 c-1 -18 -3 -59 -6 -92 -7 -65 9 -72 21 -9 4 21 10 31 12 23 3 -8 14 -22 24 -30 17 -14 17 -18 -11 -83 l-30 -68 55 6 c37 5 55 4 55 -3 0 -15 -33 -32 -62 -32 -35 0 -48 -18 -48 -67 0 -58 32 -79 127 -81 38 -1 84 -7 103 -12 19 -6 65 -10 101 -10 37 0 83 -7 102 -15 28 -12 80 -15 229 -15 105 0 188 -4 183 -8 -31 -27 -132 -52 -208 -52 -133 0 -303 -18 -335 -34 -16 -8 -53 -18 -83 -22 -30 -4 -69 -13 -88 -20 -18 -8 -45 -14 -60 -14 -15 0 -42 -13 -61 -29 l-34 -28 -15 26 c-7 14 -13 37 -13 51 1 24 1 24 -13 6 -8 -11 -17 -33 -19 -50 -35 -239 -46 -351 -47 -451 0 -66 -4 -156 -10 -200 -5 -44 -14 -150 -19 -235 -5 -85 -9 -156 -10 -158 0 -2 -30 -2 -67 0 l-68 3 -5 175 c-4 134 -7 160 -12 113 -6 -60 -61 -223 -65 -193 -10 83 -14 92 -47 105 -18 8 -53 15 -78 16 -40 2 -51 -2 -95 -39 -28 -24 -60 -42 -73 -42 -23 0 -23 -1 -7 -17 10 -10 61 -26 126 -39 60 -12 136 -30 168 -40 l58 -18 -78 -10 c-95 -13 -119 -34 -116 -100 2 -41 -42 -146 -62 -146 -11 0 -29 -67 -29 -110 0 -19 9 -50 20 -68 25 -40 25 -42 0 -42 -18 0 -19 -3 -10 -20 10 -19 21 -20 225 -20 211 0 215 0 215 21 0 11 4 29 10 39 13 25 127 100 152 100 23 0 160 30 319 71 63 16 134 29 157 29 l42 0 0 40 0 40 43 -5 c23 -4 56 -8 72 -11 49 -7 289 -119 365 -170 78 -52 151 -73 265 -74 39 -1 84 -7 100 -15 26 -11 20 -21 -9 -16 -5 1 -5 -6 -1 -16 17 -42 24 -77 27 -133 2 -49 6 -61 25 -71 19 -10 25 -9 40 9 10 12 42 39 71 60 52 38 54 39 90 26 20 -7 58 -13 83 -14 67 0 70 -20 11 -82 l-47 -50 -62 5 c-34 2 -63 2 -65 -2 -5 -11 -67 -52 -127 -84 -130 -69 -211 -116 -236 -138 -11 -9 -45 -29 -75 -44 -30 -15 -98 -60 -150 -99 -184 -139 -259 -187 -317 -202 -39 -10 -65 -12 -83 -5 -15 5 -65 7 -112 4 -106 -7 -221 4 -215 20 5 17 111 75 177 97 124 42 285 113 455 200 143 73 189 101 222 138 24 27 43 57 43 70 0 13 5 32 10 42 9 16 5 22 -21 36 -30 15 -34 15 -69 -5 -27 -15 -47 -19 -69 -15 -23 5 -31 3 -31 -7 0 -14 -12 -23 -66 -47 -16 -8 -42 -21 -59 -29 -16 -9 -43 -22 -58 -30 -24 -13 -27 -19 -22 -47 7 -35 19 -27 -149 -100 -32 -15 -91 -48 -130 -74 -39 -26 -93 -61 -121 -77 -27 -15 -70 -45 -95 -65 -114 -93 -270 -163 -467 -209 -40 -9 -78 -22 -85 -29 -16 -16 -38 -15 -38 3 0 26 84 119 125 139 22 11 83 54 136 96 53 42 134 101 181 131 69 43 88 61 98 89 7 19 21 45 32 56 31 34 8 35 -67 3 -38 -16 -74 -28 -80 -28 -34 4 -65 -3 -65 -14 0 -7 -17 -19 -37 -26 -34 -13 -69 -33 -194 -115 -46 -30 -199 -181 -199 -197 0 -5 -7 -9 -15 -9 -8 0 -20 18 -27 43 l-13 42 -5 -65 -5 -65 -17 49 c-10 27 -18 60 -18 72 0 13 -13 37 -30 54 -24 25 -30 39 -30 75 0 26 -5 45 -11 45 -6 0 -36 -25 -67 -56 -38 -37 -84 -68 -140 -95 -45 -21 -84 -39 -87 -39 -2 0 -7 22 -11 50 -4 34 -12 51 -24 55 -19 6 -104 -27 -114 -44 -13 -21 -66 -12 -91 15 -33 35 -37 54 -26 105 5 24 8 45 5 48 -16 16 -33 -64 -34 -155 0 -38 -5 -75 -11 -81 -9 -9 -8 -16 5 -28 9 -9 16 -25 16 -36 0 -12 19 -93 41 -182 23 -89 44 -172 46 -184 7 -29 21 -40 56 -45 l28 -3 3 -100 c2 -70 10 -118 25 -159 28 -79 27 -92 -13 -132 -25 -25 -43 -34 -67 -34 -34 0 -70 -24 -64 -43 2 -7 6 -24 9 -40 4 -15 31 -56 61 -92 30 -35 55 -72 55 -80 0 -21 25 -68 44 -84 34 -29 74 -116 81 -178 4 -35 3 -63 -2 -63 -4 0 -19 9 -33 20 -14 11 -32 20 -41 20 -17 0 -49 30 -49 45 0 15 -80 127 -125 175 -65 71 -91 112 -98 154 -4 22 -19 58 -35 80 -16 23 -32 49 -35 59 -9 24 -53 39 -94 31 -26 -5 -38 -15 -51 -40 -14 -30 -14 -42 -3 -96 7 -34 22 -80 33 -102 15 -29 21 -58 20 -97 -1 -39 3 -61 13 -69 20 -16 19 -84 0 -100 -13 -11 -32 -11 -99 -1 -73 11 -88 11 -114 -3 -17 -9 -38 -16 -47 -16 -23 0 -55 -37 -55 -65 0 -14 9 -41 20 -62 15 -28 17 -40 8 -56 -16 -30 -1 -140 27 -208 28 -65 31 -103 13 -179 -13 -56 -47 -91 -100 -104 -21 -5 -28 -12 -28 -31 0 -36 -18 -30 -29 10 -9 32 2 176 15 197 3 4 -1 8 -9 8 -22 0 -27 22 -27 113 -1 148 -36 288 -73 287 -21 -1 -54 -34 -91 -93 -20 -32 -41 -57 -46 -57 -6 0 -10 21 -10 48 0 34 10 66 35 116 19 39 35 80 35 92 0 13 9 38 20 57 11 18 28 58 39 89 10 30 26 68 35 85 11 23 13 42 8 74 l-8 44 -59 -115 c-32 -63 -69 -135 -81 -160 -13 -25 -37 -63 -54 -85 -16 -22 -45 -72 -64 -110 -45 -94 -80 -135 -116 -135 -27 0 -60 -29 -117 -106 -34 -45 -27 -14 10 42 18 28 65 82 105 121 39 39 72 78 72 87 0 30 -49 18 -108 -28 -59 -46 -102 -65 -102 -47 0 6 49 59 108 118 60 60 127 135 150 168 23 33 56 80 73 105 87 122 144 252 156 354 4 35 15 62 35 87 27 34 29 42 31 140 1 95 -1 109 -26 163 -25 52 -28 70 -26 145 2 83 1 86 -22 91 -19 5 -25 14 -30 45 -3 22 -7 45 -9 50 -2 6 3 23 10 38 11 23 12 32 1 49 -10 16 -10 23 3 37 17 18 21 41 9 41 -5 0 -30 -9 -58 -19 -27 -10 -76 -22 -107 -26 -50 -6 -58 -5 -58 9 0 31 -29 15 -48 -26 -34 -74 -54 -88 -127 -88 l-64 0 -6 -34 c-4 -18 -1 -77 5 -131 9 -78 9 -99 -1 -106 -23 -14 -181 -32 -284 -33 l-100 -1 -5 40 c-5 40 16 186 44 308 13 56 44 127 110 254 10 18 21 64 25 102 8 78 25 105 72 115 20 4 29 11 29 25 0 11 4 23 10 26 5 3 10 17 10 31 0 22 -3 24 -22 18 -27 -8 -64 -27 -95 -50 -21 -15 -23 -14 -47 25 -14 22 -26 45 -26 50 0 6 -13 25 -28 43 -56 65 -70 105 -82 246 -7 72 -16 132 -21 132 -11 0 -52 -81 -72 -145 -46 -142 -72 -449 -72 -855 1 -292 7 -406 41 -690 8 -69 26 -215 39 -325 13 -110 29 -257 36 -327 l12 -128 30 0 30 0 -7 158 c-3 86 -9 203 -12 258 l-7 102 64 -2 c35 0 112 3 171 8 l108 8 -6 -93 c-5 -77 -11 -101 -31 -131 l-25 -37 7 -242 c4 -133 11 -252 15 -265 5 -12 6 -86 3 -164 -5 -120 -3 -148 12 -193 l18 -53 -27 -68 c-17 -42 -26 -81 -24 -104 3 -34 6 -37 35 -40 18 -2 41 1 51 7 18 9 20 6 25 -40 10 -80 53 -123 138 -135 46 -6 47 -7 53 -51 9 -66 39 -103 83 -103 20 0 44 7 54 16 17 15 20 11 59 -68 47 -94 90 -144 130 -153 15 -3 37 -17 49 -30 27 -32 69 -32 120 -3 36 20 41 21 77 7 38 -14 39 -17 60 -99 27 -107 39 -133 73 -153 17 -10 35 -37 51 -74 44 -107 108 -191 169 -222 40 -21 200 -71 225 -71 9 0 26 -10 37 -21 17 -17 23 -19 30 -8 15 24 11 79 -6 79 -8 0 -15 -7 -15 -15 0 -26 -24 -17 -53 20 -15 19 -51 53 -80 75 -69 53 -248 199 -299 246 -61 55 -59 65 50 242 14 24 21 46 17 62 -3 14 -8 50 -11 80 l-6 55 32 -30 c18 -16 50 -66 72 -110 39 -80 40 -81 35 -175 -3 -70 -1 -102 9 -122 8 -16 18 -28 23 -28 27 0 108 60 149 110 26 32 90 97 144 144 74 66 103 86 126 86 16 0 37 9 47 20 10 11 24 20 32 20 7 0 13 10 13 23 0 20 -5 22 -57 25 -119 5 -222 24 -343 62 -69 21 -142 41 -162 44 -21 2 -66 18 -100 34 -87 40 -148 54 -154 36 -2 -8 -6 -21 -9 -29 -7 -23 -37 -4 -60 39 -11 20 -22 36 -25 36 -4 0 -24 -27 -45 -60 -31 -49 -41 -57 -48 -44 -5 8 -6 30 -3 47 4 21 -1 51 -14 85 -11 29 -17 58 -14 64 9 14 76 2 122 -21 43 -22 178 -61 210 -61 12 0 39 9 59 20 44 23 149 28 156 8 2 -7 18 8 37 33 27 39 39 48 72 53 22 4 60 16 84 26 69 32 85 30 109 -12 18 -34 18 -39 5 -53 -14 -14 -89 -39 -150 -51 -14 -2 -59 -11 -100 -19 -41 -8 -92 -17 -114 -20 -96 -15 38 -44 205 -45 139 0 247 14 394 50 115 29 166 57 188 103 9 20 20 37 23 37 3 0 4 -19 2 -42 -2 -34 1 -43 15 -46 28 -6 60 79 59 161 0 37 4 67 9 67 5 0 9 5 9 11 0 6 -7 9 -15 5 -18 -7 -21 24 -4 41 24 24 59 648 63 1126 3 246 8 483 12 527 6 77 7 79 35 85 41 9 36 32 -8 44 -21 6 -42 11 -48 11 -5 0 -27 5 -47 11 -40 11 -60 37 -73 97 l-7 32 82 0 c96 0 289 37 418 79 95 31 284 56 349 45 22 -3 77 1 124 9 46 8 150 25 232 38 103 16 147 26 147 36 0 7 -16 15 -39 19 -32 5 -38 10 -34 25 7 26 69 76 112 90 19 7 64 31 99 55 35 24 69 44 75 44 15 0 145 65 166 83 9 8 44 28 78 45 35 17 75 40 90 52 16 12 64 42 108 67 77 43 82 45 123 34 23 -6 58 -11 77 -11 49 0 47 -29 -5 -60 -23 -14 -76 -48 -118 -77 -42 -28 -108 -67 -147 -87 -185 -93 -280 -153 -304 -189 -18 -27 -36 -40 -65 -48 -66 -19 -96 -33 -96 -46 0 -14 161 -18 283 -6 79 7 92 29 25 40 l-42 6 69 65 c92 85 171 137 219 146 38 7 38 7 32 -21 -4 -15 -17 -39 -30 -53 -12 -14 -41 -51 -64 -82 -25 -34 -53 -60 -67 -64 -14 -3 -25 -13 -25 -21 0 -12 16 -14 88 -12 70 2 97 -2 139 -19 85 -35 188 -89 203 -107 7 -9 29 -23 48 -31 53 -22 119 -80 148 -129 60 -103 175 -440 158 -466 -3 -5 -26 -21 -52 -36 -40 -24 -57 -28 -117 -27 -91 1 -347 66 -389 99 -30 23 -26 85 7 124 18 22 27 44 27 68 l0 36 -113 -7 c-106 -7 -115 -6 -140 14 -20 16 -27 30 -27 56 0 57 -14 74 -64 74 -24 0 -63 -7 -86 -15 -53 -19 -50 -19 -50 5 0 16 -7 20 -34 20 -48 0 -96 -41 -96 -82 0 -26 2 -29 15 -18 12 10 21 10 45 0 33 -14 39 -28 42 -110 3 -51 5 -55 28 -55 33 0 48 50 32 109 -9 33 -8 44 3 55 20 20 41 7 65 -38 24 -47 25 -69 5 -95 -19 -25 -19 -54 0 -100 15 -34 18 -37 46 -31 24 6 36 1 68 -27 20 -18 50 -43 65 -56 34 -29 28 -38 -15 -23 -18 6 -35 9 -37 6 -3 -3 9 -24 26 -48 18 -23 48 -73 68 -112 19 -38 45 -80 56 -92 28 -30 180 -131 226 -150 58 -24 113 -83 65 -70 -10 3 -59 8 -110 12 -85 6 -93 5 -113 -15 -11 -11 -18 -25 -15 -30 4 -6 -24 -10 -70 -10 l-75 0 55 -67 c30 -37 70 -97 88 -132 22 -45 46 -76 77 -100 34 -26 39 -33 20 -27 -65 17 -82 19 -90 5 -11 -17 -45 0 -109 56 -50 43 -177 112 -188 101 -9 -8 22 -68 94 -184 47 -73 98 -132 250 -285 121 -121 194 -202 198 -219 9 -34 -7 -37 -29 -6 -28 40 -250 230 -293 251 -24 12 -45 19 -47 16 -3 -2 -1 -38 5 -78 5 -41 7 -76 5 -79 -3 -2 -35 42 -72 99 -37 57 -69 99 -71 92 -12 -35 164 -373 236 -454 26 -30 76 -101 111 -159 34 -58 73 -119 86 -137 39 -52 48 -83 27 -99 -16 -12 -14 -13 18 -14 53 0 64 19 66 118 1 67 6 91 21 112 11 15 30 73 42 131 19 92 21 122 15 259 -3 85 -12 197 -19 248 l-13 92 24 0 c19 0 23 5 23 33 0 26 -9 42 -42 74 -24 22 -49 58 -57 79 -8 21 -31 76 -52 122 -22 45 -39 87 -39 92 0 6 46 10 114 10 90 0 131 5 195 23 l81 24 0 -206 c0 -113 -5 -240 -10 -281 -6 -41 -7 -108 -4 -147 6 -60 10 -73 24 -73 26 0 51 200 85 702 9 125 22 276 30 335 27 198 17 694 -16 863 -30 154 -163 661 -190 726 -40 96 -100 158 -172 179 -29 8 -144 24 -256 35 -128 12 -210 24 -218 32 -21 21 25 252 82 418 83 237 77 194 80 615 3 379 3 380 -21 444 -30 79 -30 106 0 228 33 129 83 373 91 446 l7 57 -886 0 -886 0 0 -32z m642 -207 c13 -11 46 -24 74 -30 102 -21 154 -37 166 -50 11 -11 -1 -12 -72 -7 -47 4 -110 13 -140 21 -74 20 -136 19 -207 -3 -71 -22 -213 -19 -281 5 l-43 16 30 13 c29 12 94 19 281 29 47 2 97 8 110 14 37 15 55 13 82 -8z m-347 -1552 c47 -13 163 -67 171 -81 3 -5 1 -15 -5 -22 -12 -14 -67 -5 -181 27 -30 9 -89 21 -130 26 -81 11 -176 37 -184 49 -8 13 284 13 329 1z m-929 -1599 c15 -15 -37 -115 -95 -180 -42 -47 -52 -53 -68 -44 -14 9 -19 26 -21 85 -2 41 0 88 3 106 5 28 10 32 43 36 76 8 128 7 138 -3z m-1596 -167 c5 -37 7 -70 4 -72 -2 -3 -12 6 -21 19 -11 16 -16 39 -14 69 5 87 19 80 31 -16z m145 -5 c-4 -13 -16 -38 -26 -56 -10 -18 -19 -40 -19 -47 0 -8 -35 -51 -78 -95 -64 -66 -82 -80 -108 -80 -17 0 -37 7 -44 15 -11 13 -15 13 -29 2 -33 -28 -154 -40 -289 -28 -34 3 4 19 58 24 84 9 110 17 110 33 0 10 -14 14 -48 14 -41 0 -53 5 -77 30 -21 22 -24 30 -13 30 9 0 18 -7 22 -15 4 -11 20 -15 56 -15 l50 0 0 44 c0 40 -4 47 -41 74 -23 17 -59 34 -80 37 -50 9 -51 25 -1 25 20 0 61 3 90 6 44 6 52 4 52 -10 0 -11 9 -16 29 -16 29 0 30 -2 36 -64 l7 -64 45 -6 c83 -11 122 -7 143 14 11 11 20 25 20 31 0 12 119 135 133 137 5 1 5 -8 2 -20z m1609 -78 c10 -53 16 -130 15 -187 -2 -92 3 -135 32 -290 14 -73 4 -93 -42 -93 -36 0 -39 5 -45 87 -3 37 -15 101 -26 141 -25 95 -27 208 -5 302 20 86 36 130 47 130 4 0 15 -40 24 -90z m-1544 -361 c0 -21 -89 -126 -201 -238 -53 -53 -108 -91 -132 -91 -51 0 -58 48 -11 73 13 7 68 56 122 109 104 103 222 181 222 147z m3889 -66 c-1 -10 -5 -29 -9 -43 -7 -21 -8 -19 -9 18 -1 23 4 42 9 42 6 0 10 -8 9 -17z m-3204 -438 c42 -23 101 -74 178 -152 167 -170 183 -194 191 -275 4 -37 2 -69 -3 -72 -9 -6 -57 49 -111 129 -19 28 -68 86 -109 131 -136 145 -231 254 -231 264 0 17 21 11 85 -25z m-528 -72 c-4 -21 -11 -72 -17 -113 -6 -41 -18 -92 -27 -112 -16 -39 -16 -63 3 -371 7 -95 6 -99 -18 -125 -34 -37 -58 -103 -58 -160 0 -59 -12 -72 -65 -72 -47 0 -85 23 -85 51 0 12 20 72 45 134 39 99 46 129 55 231 6 64 13 120 15 125 3 4 10 56 16 116 16 176 76 333 127 333 11 0 13 -8 9 -37z m-219 -61 c-4 -67 -11 -90 -45 -158 -39 -77 -51 -120 -73 -274 -14 -98 -54 -239 -73 -258 -41 -40 -67 41 -27 83 18 19 19 26 10 51 -6 16 -20 39 -32 51 l-20 21 35 79 c19 43 52 132 73 198 27 87 52 143 91 203 29 45 55 82 59 82 4 0 5 -35 2 -78z"></path><path id="pFGcIyD85" d="M1733 8929 c-50 -9 -107 -35 -124 -55 -15 -19 2 -40 40 -47 16 -3 46 -18 67 -32 38 -26 43 -26 139 -20 96 6 150 1 333 -26 l83 -12 40 39 c55 54 50 71 -34 112 -58 28 -84 35 -180 42 -134 11 -306 11 -364 -1z"></path><path id="pGKe6ikh7" d="M768 7367 c-21 -6 -38 -16 -38 -23 0 -7 29 -42 65 -78 l66 -66 -26 -10 c-59 -23 -135 -62 -135 -71 0 -5 12 -12 26 -15 14 -4 34 -20 44 -36 24 -40 119 -120 204 -171 38 -23 92 -63 120 -90 l51 -47 -37 -35 c-26 -24 -38 -44 -38 -62 0 -21 3 -24 12 -15 14 14 42 16 34 3 -4 -5 -2 -21 4 -35 9 -24 14 -26 71 -26 59 0 63 2 105 43 l43 44 79 -1 c95 -1 119 12 159 86 28 53 28 53 88 61 67 10 134 34 151 54 6 7 16 13 23 13 6 0 11 5 11 10 0 15 -72 12 -120 -5 -23 -8 -71 -15 -105 -15 -66 0 -75 -5 -157 -76 -20 -18 -50 -40 -67 -48 -30 -16 -30 -16 -108 46 -43 34 -103 86 -134 116 -31 29 -66 59 -77 65 -42 25 -207 160 -210 172 -2 9 12 16 45 20 26 4 76 13 111 21 35 8 81 14 103 14 32 0 39 3 39 20 0 18 -7 20 -65 20 l-65 0 -60 58 c-33 31 -70 60 -83 64 -32 9 -86 7 -129 -5z"></path><path id="pOJ7thzMV" d="M3150 6155 c-14 -8 -55 -26 -92 -41 -46 -17 -68 -31 -68 -42 0 -11 9 -18 26 -18 14 -1 28 -4 31 -7 11 -12 4 -85 -16 -162 -11 -44 -21 -91 -21 -106 0 -14 -4 -29 -9 -35 -12 -13 -31 -96 -31 -134 0 -18 -4 -29 -10 -25 -6 4 -10 89 -11 218 -1 223 -11 228 -24 12 -3 -66 -15 -154 -26 -197 -15 -59 -19 -112 -19 -235 0 -175 -15 -520 -30 -713 -15 -188 -14 -553 2 -625 l14 -59 84 1 c48 0 102 -5 124 -13 54 -19 112 -17 174 6 57 22 160 27 193 10 27 -15 62 -87 69 -145 4 -27 11 -59 15 -69 8 -18 4 -19 -81 -13 -121 9 -374 52 -454 78 -36 11 -102 40 -147 65 -86 46 -163 60 -163 30 0 -7 30 -44 68 -83 66 -69 149 -131 227 -171 22 -11 64 -36 94 -56 51 -35 57 -36 141 -36 74 0 91 -3 114 -21 21 -17 26 -27 21 -48 -3 -15 1 -43 10 -64 8 -20 15 -50 15 -68 0 -18 10 -43 24 -59 64 -77 97 -290 56 -369 -23 -45 -19 -53 21 -39 61 21 107 110 139 268 19 94 25 109 58 143 39 40 52 46 52 23 0 -21 23 -25 43 -8 16 14 17 12 17 -25 0 -95 -33 -195 -83 -253 -12 -13 15 9 60 50 69 64 83 82 93 123 10 40 21 54 71 93 99 76 129 85 292 87 l142 2 50 34 c28 19 68 49 89 68 22 18 54 36 73 39 23 4 33 12 33 25 0 16 -8 19 -45 19 -28 0 -47 5 -49 13 -3 6 -16 48 -31 92 -14 44 -32 119 -39 166 -13 85 -29 129 -45 129 -15 0 -41 -90 -41 -140 0 -33 -6 -56 -21 -74 -18 -23 -20 -36 -16 -99 3 -39 8 -85 12 -100 10 -38 -12 -79 -39 -75 -17 2 -20 9 -18 38 3 32 0 37 -30 50 -27 13 -34 23 -45 66 -16 65 -97 218 -129 243 -22 17 -25 28 -29 122 l-4 104 19 -45 c10 -25 19 -57 19 -72 1 -23 6 -28 25 -28 13 0 36 10 51 21 30 24 30 29 1 149 -27 112 -40 343 -24 433 7 43 17 78 23 79 5 1 18 -10 28 -25 16 -20 21 -51 28 -156 9 -150 11 -161 51 -219 38 -55 56 -43 30 19 -27 63 -32 91 -42 236 -13 194 -55 420 -100 538 -10 28 -33 87 -50 132 -17 46 -35 85 -40 88 -18 11 -78 110 -130 212 -40 79 -67 118 -123 175 -40 40 -88 101 -107 136 -19 35 -48 80 -65 101 -16 20 -41 61 -55 90 l-25 54 23 15 c42 28 25 34 -75 28 -98 -7 -98 -7 -171 28 -79 39 -130 45 -172 21z m71 -496 c26 -50 31 -73 45 -235 12 -130 14 -229 10 -362 -4 -113 -3 -196 3 -215 6 -18 18 -79 28 -136 15 -90 22 -110 50 -144 18 -21 33 -43 33 -49 0 -5 9 -22 20 -36 22 -28 21 -60 -5 -117 -15 -34 -21 -127 -10 -165 6 -20 5 -23 -5 -13 -12 12 -28 84 -35 163 -2 25 -13 43 -37 63 -84 71 -104 96 -126 156 -20 52 -22 71 -16 114 5 29 8 59 7 67 -8 63 -3 262 7 297 15 51 -2 191 -29 238 -10 17 -20 48 -24 69 -3 21 -13 46 -22 56 -12 13 -17 49 -22 138 l-6 120 27 27 c42 42 72 32 107 -36z m640 -914 c19 -59 23 -99 27 -249 3 -119 0 -198 -8 -235 -30 -143 -51 -216 -64 -229 -12 -12 -16 -11 -28 9 -26 46 -10 776 18 821 9 14 22 -15 55 -117z m-398 25 c15 0 18 -5 12 -22 -4 -13 -10 -39 -15 -58 -6 -29 -8 -30 -9 -10 -1 14 -8 36 -16 50 -18 32 -20 69 -3 52 7 -7 21 -12 31 -12z m24 -674 c85 -65 134 -121 192 -218 29 -48 56 -90 62 -93 5 -4 29 1 53 10 25 10 49 14 55 10 50 -30 -63 -92 -148 -80 -56 8 -66 16 -76 65 -16 79 -101 219 -177 292 -24 22 -38 58 -23 58 3 0 31 -20 62 -44z"></path><path id="p10OVA1qG8" d="M4325 4736 c4 -48 14 -122 22 -164 8 -42 17 -105 20 -140 4 -48 9 -62 19 -58 10 4 14 -3 14 -22 0 -38 26 -118 48 -150 36 -50 105 -200 163 -355 37 -100 64 -152 102 -200 28 -37 29 -39 11 -52 -17 -13 -15 -14 23 -15 39 0 44 4 73 45 17 25 35 45 40 45 6 0 10 10 10 23 0 20 -4 23 -34 19 -28 -3 -37 1 -52 23 -11 15 -47 62 -81 106 -35 43 -66 91 -69 107 -4 15 -19 52 -34 82 -15 30 -31 70 -35 87 -3 18 -35 109 -70 202 -41 109 -67 196 -75 247 -14 105 -27 151 -56 201 -41 71 -47 66 -39 -31z"></path><path id="p1480JCj2e" d="M1557 1123 c-11 -10 -8 -51 4 -58 5 -4 8 -12 6 -18 -5 -17 54 -67 79 -67 12 0 24 6 27 13 3 9 9 7 24 -5 30 -27 71 -23 79 7 5 22 8 23 22 9 14 -14 16 -13 29 16 27 65 14 78 -47 49 -36 -18 -47 -19 -66 -9 -13 8 -36 10 -55 6 -35 -7 -59 7 -59 34 0 10 -7 21 -16 24 -19 7 -19 7 -27 -1z"></path><path id="pTbX4GCiw" d="M1584 955 c-4 -8 -12 -15 -20 -15 -8 0 -14 -5 -14 -11 0 -5 -8 -9 -17 -8 -22 3 -73 -17 -73 -28 0 -48 123 -269 192 -346 42 -46 65 -55 102 -41 13 5 14 9 5 20 -6 8 -17 14 -24 14 -7 0 -18 6 -24 14 -9 11 -7 15 10 19 18 5 21 11 16 36 -6 26 -3 31 13 31 15 0 20 7 20 25 0 19 -5 25 -16 23 -23 -4 -27 39 -7 70 13 21 13 26 -2 42 -9 10 -23 17 -31 14 -52 -16 -50 -15 -31 -25 16 -9 16 -12 2 -32 -20 -29 -19 -34 10 -41 29 -7 34 -26 6 -26 -10 0 -29 -9 -42 -20 l-24 -20 25 -20 25 -20 -27 0 c-19 0 -29 6 -33 23 -4 12 -18 37 -32 55 l-24 32 25 0 c14 0 28 -4 31 -10 3 -5 13 -10 21 -10 21 0 17 38 -5 45 -11 3 -25 13 -32 21 -10 12 -7 20 15 43 24 25 25 29 11 41 -8 7 -12 17 -9 22 7 12 -18 98 -28 98 -5 0 -11 -7 -14 -15z"></path></g></g><g id="l655cTPQ2FAv0LFO0vKnrHM" fill="rgb(145,103,67)" style="transform: none;"><g style="transform: none;"><path id="ppL2AKqYw" d="M2850 7320 c-6 -11 -21 -20 -34 -20 -13 0 -26 -6 -29 -14 -3 -8 -16 -22 -29 -30 -22 -14 -28 -14 -76 4 -29 11 -72 20 -97 20 -43 0 -44 0 -47 -37 -3 -37 -5 -39 -75 -67 -59 -24 -73 -34 -73 -52 l0 -21 100 17 c64 12 111 26 131 40 22 17 39 21 64 17 21 -3 53 1 82 12 26 10 53 16 60 14 17 -6 30 24 35 85 6 57 4 62 -12 32z"></path><path id="pNEX4TpNh" d="M1090 7240 c-206 -26 -280 -53 -266 -97 6 -19 174 -157 237 -195 l29 -18 0 30 c0 30 -63 111 -132 168 -15 13 -26 27 -24 31 3 4 52 16 110 26 99 18 106 21 106 42 0 13 -1 22 -2 22 -2 -1 -28 -5 -58 -9z"></path><path id="p15JUs9k5B" d="M1550 7216 c0 -40 -2 -38 125 -112 190 -110 198 -114 243 -114 41 0 42 1 42 34 0 41 -42 81 -155 150 -84 51 -154 76 -212 76 -42 0 -43 -1 -43 -34z"></path><path id="plUiLg9bV" d="M1522 6600 c-76 -91 -76 -104 0 -205 35 -47 67 -85 72 -85 4 0 5 17 1 37 -14 77 -16 152 -3 162 7 6 26 21 41 33 18 15 30 36 34 60 5 34 3 39 -21 48 -54 20 -72 13 -124 -50z"></path><path id="p10icW8za7" d="M4879 6307 c-35 -33 -92 -70 -155 -101 -139 -68 -154 -80 -154 -122 l0 -35 48 0 c26 0 82 -3 126 -6 43 -2 90 -2 105 2 24 6 181 159 181 177 0 4 9 17 20 28 l21 21 -23 19 c-13 10 -36 25 -53 31 -16 7 -37 18 -45 25 -13 10 -24 4 -71 -39z"></path><path id="pzYtnsJeW" d="M1352 6215 c-24 -30 -29 -70 -10 -81 34 -21 201 8 228 41 18 22 5 27 -166 61 -26 5 -35 2 -52 -21z"></path><path id="pHtiq5b0k" d="M4780 5985 c-47 -7 -91 -14 -97 -14 -23 -2 -15 -39 9 -43 21 -3 21 -3 -5 -34 -14 -17 -30 -50 -36 -72 -8 -39 -7 -42 12 -42 11 0 28 6 36 14 23 21 103 45 184 56 90 13 117 30 117 73 0 25 -7 39 -30 55 -33 25 -63 26 -190 7z"></path><path id="pTwlB3UwT" d="M5260 4438 c-6 -24 -20 -64 -30 -90 -11 -26 -20 -54 -20 -62 0 -8 -18 -72 -40 -141 -62 -196 -51 -251 21 -97 36 79 89 244 110 347 16 82 -21 121 -41 43z"></path><path id="pUxWPmSuD" d="M2490 3806 c-91 -18 -202 -66 -240 -102 l-35 -34 32 0 c38 0 83 -16 83 -29 0 -6 -21 -25 -47 -43 -25 -18 -73 -59 -106 -90 -56 -54 -59 -59 -53 -92 10 -53 -12 -324 -29 -355 -14 -25 -14 -25 -15 -3 0 15 -6 22 -20 22 -17 0 -20 -7 -21 -42 -3 -149 -6 -208 -14 -242 l-8 -40 58 50 c31 27 82 70 111 97 30 26 58 47 63 47 5 0 14 13 19 30 8 20 19 31 39 35 15 4 34 8 41 11 21 6 14 64 -12 95 -33 39 -48 166 -21 185 13 10 23 10 50 -1 25 -11 46 -12 95 -4 119 19 155 -8 147 -108 -2 -32 -10 -76 -16 -98 -7 -22 -13 -47 -14 -54 -3 -19 78 -63 164 -91 142 -47 276 -149 383 -294 l59 -80 37 149 c24 96 51 177 75 225 36 71 37 77 31 144 -7 77 -35 136 -109 235 -35 48 -41 52 -48 35 -4 -10 -8 -54 -8 -96 -1 -43 -4 -78 -7 -78 -17 0 -72 42 -82 62 -42 85 -64 158 -65 223 -2 60 -7 77 -35 120 -36 55 -81 92 -157 128 -27 13 -59 34 -70 47 -11 12 -32 28 -47 36 -32 16 -128 16 -208 0z"></path><path id="ppJo0nUXt" d="M2215 2803 c-11 -3 -27 -10 -35 -17 -23 -19 -70 -37 -80 -31 -20 13 -97 -50 -135 -109 -80 -128 -120 -183 -170 -236 -90 -96 -98 -113 -136 -301 -11 -57 -29 -131 -40 -164 -23 -69 -34 -184 -20 -204 8 -12 15 -11 45 7 l36 21 4 -22 c3 -12 7 -38 11 -58 3 -24 15 -43 35 -57 l29 -22 -6 112 c-6 114 -1 152 44 406 13 72 21 92 33 92 26 0 46 -30 65 -95 9 -33 22 -69 28 -80 13 -24 10 -95 -5 -112 -6 -7 -27 -13 -47 -13 -29 0 -44 -7 -72 -36 -31 -32 -34 -40 -32 -92 3 -115 12 -143 66 -202 27 -30 66 -63 85 -73 48 -23 82 -56 82 -79 0 -16 9 -18 65 -18 62 0 66 -1 75 -27 25 -71 51 -91 225 -175 17 -8 36 -22 44 -31 7 -10 18 -17 24 -17 5 0 35 -20 65 -45 30 -25 60 -45 67 -45 26 0 123 -49 155 -78 28 -26 42 -31 98 -34 70 -3 111 9 133 38 17 22 43 40 81 55 31 12 48 53 48 118 0 65 39 141 109 214 90 95 83 68 110 420 5 65 11 121 14 123 2 2 10 -2 17 -11 8 -9 14 -56 17 -123 3 -80 8 -113 21 -131 27 -38 31 -45 36 -72 7 -35 36 -46 54 -22 16 21 10 146 -13 254 -8 37 -19 97 -25 133 -17 110 -57 203 -107 250 -38 36 -47 54 -78 151 -19 61 -47 129 -62 150 -43 60 -111 122 -141 130 -15 4 -35 15 -45 26 -10 10 -25 19 -33 19 -8 0 -32 18 -53 39 -34 35 -45 40 -104 46 -68 7 -92 4 -144 -23 -30 -15 -36 -15 -85 1 -52 17 -53 17 -70 -4 -10 -12 -18 -28 -18 -36 0 -10 -6 -13 -16 -9 -9 3 -24 6 -34 6 -10 0 -27 13 -37 30 -12 20 -31 34 -63 44 -61 19 -91 24 -115 19z m211 -159 c15 -4 20 -11 17 -25 -4 -15 3 -23 31 -34 19 -8 49 -15 66 -15 37 0 100 -25 100 -40 0 -17 -112 -62 -124 -50 -16 16 -46 12 -73 -10 -32 -25 -58 -25 -82 -1 -19 19 -19 18 -25 -12 -3 -17 -2 -35 4 -41 5 -5 57 -13 114 -17 58 -4 110 -10 116 -14 21 -13 9 -25 -24 -25 -30 0 -35 -3 -38 -27 -3 -25 -8 -29 -50 -33 -76 -9 -79 -22 -20 -79 59 -57 64 -78 25 -87 -16 -4 -39 -15 -52 -26 -28 -21 -50 -23 -86 -6 -36 16 -46 -1 -43 -76 3 -55 5 -61 36 -77 l32 -19 0 27 c0 14 -7 35 -17 45 -15 17 -14 18 26 18 35 0 43 -4 51 -26 17 -43 13 -94 -7 -94 -13 0 -14 -3 -5 -12 7 -7 12 -20 12 -30 0 -9 9 -22 20 -28 18 -9 20 -21 20 -103 1 -51 7 -109 14 -130 8 -21 10 -40 5 -43 -5 -3 -33 -3 -62 1 -35 4 -65 2 -94 -9 -30 -10 -69 -14 -135 -11 -145 7 -187 21 -270 97 -45 42 -46 44 -51 115 -5 91 0 97 77 81 44 -8 60 -8 69 1 9 10 8 15 -5 25 -20 15 -23 26 -7 26 21 0 69 42 69 60 0 11 7 23 17 28 14 8 11 17 -26 69 -41 58 -42 63 -51 168 -9 113 -7 124 21 165 9 14 24 63 33 110 18 88 37 130 60 130 8 0 27 7 42 15 20 10 43 13 75 9 27 -4 55 -2 65 5 20 11 95 14 130 5z m514 -294 c22 -41 -10 -92 -84 -129 -29 -15 -43 -17 -69 -9 -29 9 -38 7 -71 -16 -48 -32 -63 -32 -90 -3 l-22 23 36 17 c19 8 56 18 81 22 28 3 54 14 65 26 18 20 18 21 0 34 -25 19 -11 35 32 36 20 1 48 5 62 9 40 13 49 11 60 -10z m132 -355 c-4 -42 -5 -44 -25 -33 -12 6 -24 12 -26 14 -3 3 48 64 53 64 1 0 0 -20 -2 -45z m-422 26 c-8 -5 -35 -5 -60 -1 l-45 7 60 1 c37 1 54 -2 45 -7z m173 -236 c-1 -11 -4 -31 -5 -45 -2 -18 2 -25 17 -28 11 -2 32 -17 47 -34 25 -29 29 -30 45 -16 40 35 125 34 116 -2 -4 -16 -67 -50 -93 -50 -5 0 -21 -5 -37 -11 l-28 -11 25 -14 c16 -8 50 -13 90 -12 105 3 114 -15 29 -58 -48 -24 -57 -25 -182 -21 -153 5 -267 30 -267 59 0 10 16 53 36 95 21 43 40 89 44 103 9 36 75 71 125 68 33 -3 40 -6 38 -23z"></path></g></g><g id="ljOhPpETWLPoKHRdNc2ddV" fill="rgb(190,177,156)" style="transform: none;"><g style="transform: none;"><path id="p1860GUodM" d="M1910 7299 c-495 -6 -593 -12 -745 -50 -22 -6 -90 -20 -151 -33 -60 -12 -115 -26 -122 -30 -21 -13 -13 -34 29 -78 23 -24 82 -87 132 -141 120 -131 277 -257 321 -257 34 0 79 27 166 98 48 39 56 42 113 42 61 0 236 48 335 91 23 11 54 19 68 19 16 0 43 15 71 40 62 54 137 90 190 90 24 0 72 12 106 26 108 45 197 87 197 93 0 4 -12 14 -27 23 -42 26 -6 23 73 -7 59 -22 69 -23 98 -11 29 12 84 72 75 81 -9 7 -468 10 -929 4z m-254 -96 c92 -31 310 -182 264 -182 -15 -1 -44 14 -215 113 -110 64 -139 86 -114 86 9 0 38 -8 65 -17z"></path><path id="pBdG9GN8m" d="M685 7110 c-45 -36 -107 -70 -128 -70 -19 0 -47 -32 -47 -54 0 -10 -11 -19 -29 -22 -47 -10 -64 -37 -72 -115 -4 -38 -15 -84 -25 -102 -66 -127 -97 -198 -110 -253 -28 -123 -55 -299 -50 -326 4 -21 2 -26 -9 -21 -11 4 -15 -2 -15 -21 0 -41 35 -49 190 -43 237 10 365 43 494 126 58 38 136 120 136 144 0 5 -28 -17 -63 -50 -59 -55 -176 -123 -238 -138 l-26 -6 -10 97 c-14 134 -14 134 63 134 72 0 92 14 125 85 24 51 23 61 -1 92 -26 33 -26 35 12 72 31 30 31 31 12 46 -30 22 -10 18 63 -15 36 -16 77 -30 91 -30 31 0 107 61 128 103 l16 31 -60 55 c-33 31 -97 80 -143 109 -80 50 -166 124 -199 170 -26 37 -61 37 -105 2z"></path><path id="p3OSDv8XI" d="M4603 6490 c-12 -5 -174 -12 -360 -15 -332 -6 -432 -15 -658 -57 -33 -6 -94 -10 -135 -9 -107 2 -306 -24 -365 -47 -87 -34 -285 -74 -400 -81 l-110 -6 1 -30 c2 -41 21 -107 37 -129 19 -25 201 -66 299 -66 82 0 158 20 252 67 l49 25 79 -38 c79 -36 81 -37 176 -31 64 3 115 12 150 26 68 27 71 27 129 -9 29 -17 73 -33 109 -39 34 -5 89 -23 123 -40 88 -45 119 -42 186 19 61 55 67 58 63 33 -4 -26 44 -29 116 -7 57 17 59 17 72 -1 8 -10 14 -36 14 -56 0 -77 90 -99 263 -64 40 7 105 18 146 24 68 9 76 8 102 -12 16 -11 29 -22 29 -24 0 -13 -58 -34 -117 -43 -96 -13 -164 -36 -189 -65 -19 -21 -20 -28 -11 -63 13 -50 33 -62 173 -101 218 -60 337 -65 417 -18 72 43 72 41 38 176 -52 205 -137 398 -198 452 -41 35 -58 37 -75 5 -20 -38 -140 -166 -170 -182 -35 -18 -106 -18 -149 0 -23 10 -41 11 -57 5 -14 -5 -27 -8 -29 -5 -8 7 51 43 151 92 63 31 121 68 155 100 l56 52 -20 22 c-22 25 -100 66 -219 116 -86 37 -90 37 -123 24z"></path><path id="pq6RzPu7k" d="M685 6024 c-55 -25 -108 -55 -117 -67 -14 -18 -18 -19 -18 -5 0 25 -7 26 -94 17 -70 -8 -82 -7 -111 11 l-33 20 -7 -49 c-4 -28 -4 -54 -1 -60 3 -5 24 -12 45 -16 44 -7 121 -59 121 -81 0 -19 -37 -18 -48 2 -6 11 -21 14 -53 12 -38 -3 -44 -6 -47 -27 -3 -16 7 -34 29 -57 31 -32 37 -34 99 -34 55 0 72 4 100 25 36 27 65 32 76 14 5 -8 10 -6 16 5 5 9 20 16 33 16 52 0 105 31 131 76 26 44 26 46 15 136 -6 50 -8 95 -5 99 11 19 -35 5 -131 -37z m45 -49 c0 -13 -6 -28 -14 -32 -8 -4 -18 -20 -21 -35 -6 -23 -4 -28 12 -28 24 0 66 -47 59 -66 -8 -20 -75 -18 -98 2 -13 13 -21 14 -31 5 -12 -9 -15 -3 -20 36 -6 54 4 74 60 116 45 33 53 34 53 2z"></path><path id="pojvEmR6T" d="M1115 5746 c-120 -126 -228 -163 -490 -168 -88 -2 -163 -6 -166 -11 -9 -12 -184 -10 -208 3 -13 6 -24 10 -25 8 -1 -2 1 -61 5 -133 18 -335 20 -409 11 -395 -5 8 -15 51 -21 94 -6 44 -14 82 -18 85 -3 3 -3 -10 0 -29 3 -19 9 -69 12 -110 12 -158 50 -422 76 -530 32 -134 87 -287 135 -380 99 -192 242 -326 505 -473 171 -95 362 -206 514 -296 65 -39 121 -69 124 -66 3 3 -7 29 -21 58 -14 29 -34 88 -43 131 -16 73 -20 79 -51 92 -48 20 -111 18 -150 -7 l-33 -20 -22 25 c-12 14 -34 28 -49 31 -41 9 -78 54 -135 162 -57 110 -78 124 -107 73 -9 -16 -21 -30 -27 -30 -19 0 -51 59 -57 103 -6 44 -7 45 -53 51 -99 14 -133 56 -139 172 -3 46 -8 84 -13 84 -5 0 -20 -18 -35 -39 -52 -80 -77 -59 -38 31 31 71 34 126 9 185 -14 32 -16 61 -10 183 4 88 3 155 -3 171 -8 20 -17 298 -12 374 1 11 -2 32 -6 48 -5 21 0 37 22 68 25 37 28 50 30 131 1 59 6 93 14 98 6 4 43 10 81 14 102 9 244 58 317 109 64 45 152 139 152 163 0 8 -1 14 -2 14 -2 -1 -34 -34 -73 -74z"></path><path id="pAup7Javr" d="M4810 5484 c1 -5 7 -20 15 -34 22 -39 17 -48 -9 -16 -16 19 -30 27 -40 23 -14 -5 -10 -15 21 -57 21 -28 42 -60 48 -71 6 -12 20 -19 37 -19 28 0 45 -26 39 -62 -3 -22 37 -44 52 -29 8 8 6 15 -7 24 -29 22 -48 86 -47 165 l1 72 -32 0 c-18 0 -43 3 -55 6 -13 4 -23 2 -23 -2z"></path><path id="pSRy24BNl" d="M5282 5191 c-33 -30 -61 -44 -125 -61 -78 -22 -93 -22 -332 -16 -154 5 -246 4 -240 -2 17 -16 76 -32 115 -32 20 0 63 -5 94 -12 45 -9 60 -16 66 -34 5 -13 25 -56 43 -96 19 -40 40 -90 48 -112 8 -21 34 -58 59 -83 42 -41 43 -44 18 -37 -34 8 -34 3 -14 -153 29 -211 30 -336 6 -452 -13 -63 -30 -116 -43 -133 -18 -24 -22 -44 -23 -115 -1 -81 -3 -88 -28 -110 -15 -12 -34 -23 -42 -23 -29 0 -71 -29 -97 -68 -18 -28 -40 -45 -71 -57 -42 -16 -48 -16 -86 -1 -53 21 -113 7 -167 -38 -21 -18 -60 -48 -88 -67 l-50 -34 -140 0 c-160 -1 -191 -10 -294 -89 -56 -43 -59 -49 -76 -116 -10 -39 -15 -73 -12 -76 2 -3 26 9 53 25 62 38 412 181 739 301 221 82 300 127 392 223 109 114 151 190 207 377 26 85 53 175 62 200 35 101 44 148 44 210 -2 137 18 686 25 703 10 24 6 22 -43 -22z"></path><path id="p8mhzpvZU" d="M3290 4902 c0 -4 22 -30 50 -57 38 -38 47 -51 36 -57 -12 -7 -9 -18 15 -61 16 -28 29 -62 29 -74 0 -18 6 -23 25 -23 24 0 25 -3 25 -55 0 -47 3 -55 19 -55 20 0 36 26 22 34 -17 11 -22 109 -9 153 12 42 17 46 93 83 44 21 88 41 99 44 15 5 16 9 6 21 -17 21 -29 19 -91 -14 -87 -46 -120 -48 -177 -10 -26 18 -60 43 -75 56 -28 22 -67 31 -67 15z"></path><path id="p35H47Kv7" d="M2950 3565 c0 -9 7 -30 16 -47 12 -24 14 -39 6 -69 -9 -34 -6 -49 25 -121 19 -46 40 -93 46 -106 18 -38 84 -70 152 -74 59 -3 60 -3 63 25 3 25 1 27 -34 27 l-37 0 6 79 5 78 -112 112 c-108 108 -136 127 -136 96z"></path><path id="pZdKbYVo3" d="M2102 3403 c-58 -116 -75 -202 -61 -318 6 -44 12 -81 14 -83 12 -12 64 12 74 34 6 14 16 103 23 198 15 236 3 276 -50 169z"></path><path id="pEGXNkTDY" d="M1872 2504 l-23 -35 23 -19 c13 -10 26 -16 30 -14 15 9 19 64 6 83 -13 18 -15 18 -36 -15z"></path><path id="pmF32Gaed" d="M1845 2400 c-3 -5 -3 -15 0 -21 4 -5 -1 -19 -10 -29 -13 -14 -16 -30 -13 -58 5 -34 3 -38 -15 -38 -18 1 -23 -10 -37 -84 -39 -198 -54 -319 -52 -414 2 -90 5 -103 32 -147 31 -51 70 -155 70 -187 0 -40 22 -44 115 -22 48 11 96 25 107 31 19 10 20 12 5 21 -10 5 -17 15 -17 22 0 17 -39 52 -82 73 -19 10 -58 43 -85 73 -50 55 -62 85 -65 173 -1 43 55 97 102 97 45 0 60 15 60 59 0 19 7 42 16 52 14 16 13 20 -10 56 -13 21 -32 65 -41 98 -10 33 -26 70 -38 82 -18 21 -19 27 -8 79 16 80 14 94 -8 94 -11 0 -23 -4 -26 -10z"></path><path id="pHL6ewiAB" d="M3029 2053 c-20 -21 -39 -52 -42 -70 -6 -30 -3 -34 47 -62 29 -17 57 -31 62 -31 5 0 10 33 11 73 1 39 4 83 5 97 2 20 -2 26 -22 28 -18 2 -35 -8 -61 -35z"></path><path id="p2KG11scC" d="M2290 2032 c0 -48 1 -50 74 -115 41 -37 77 -67 79 -67 12 0 12 138 0 168 -12 28 -18 32 -51 32 -21 0 -47 7 -58 15 -34 26 -44 18 -44 -33z"></path><path id="p138f1plt2" d="M2524 2055 c-23 -35 -15 -59 21 -63 17 -1 40 -8 51 -13 33 -17 92 6 100 37 11 44 -1 57 -49 50 -23 -3 -57 -2 -75 3 -29 9 -34 7 -48 -14z"></path><path id="pbUQsL46J" d="M1595 1770 c-11 -17 5 -32 21 -19 8 6 14 15 14 20 0 12 -27 11 -35 -1z"></path></g></g></svg>