<svg class="svg-icon" style="width: 1em;height: 1em;vertical-align: middle;fill: currentColor;overflow: hidden;" viewBox="0 0 1024 1024" version="1.1" xmlns="http://www.w3.org/2000/svg"><path d="M638.4 659.2c-36.8 3.2-75.2-3.2-110.4-19.2-16-12.8-25.6-32-28.8-51.2 0-6.4-6.4-12.8-12.8-12.8h-48c-6.4 0-9.6 3.2-12.8 9.6-3.2 35.2 12.8 70.4 38.4 94.4 32 25.6 73.6 41.6 113.6 41.6 44.8 6.4 86.4 3.2 129.6-6.4 32-6.4 64-22.4 86.4-44.8 25.6-32 35.2-73.6 19.2-113.6-9.6-28.8-35.2-48-64-57.6-64-22.4-136-22.4-203.2-38.4-12.8-3.2-25.6-6.4-32-19.2-6.4-19.2 0-38.4 16-48 22.4-12.8 44.8-19.2 70.4-16 32-3.2 67.2 3.2 94.4 12.8 19.2 9.6 32 28.8 35.2 51.2 0 6.4 6.4 12.8 12.8 12.8h48c6.4 0 9.6-3.2 12.8-9.6 0-44.8-22.4-86.4-60.8-107.2-51.2-22.4-107.2-32-161.6-25.6-41.6 3.2-80 16-110.4 44.8-28.8 32-38.4 76.8-22.4 113.6 12.8 25.6 35.2 44.8 60.8 54.4 64 22.4 136 16 200 38.4 12.8 3.2 28.8 9.6 32 25.6 3.2 16 0 35.2-12.8 48-25.6 16-57.6 25.6-89.6 22.4z m296-428.8C806.4 156.8 680 88 553.6 14.4c-25.6-16-57.6-16-83.2 0L92.8 227.2c-25.6 12.8-41.6 41.6-41.6 67.2v432c0 28.8 16 54.4 41.6 70.4 35.2 19.2 70.4 41.6 107.2 60.8 44.8 22.4 94.4 25.6 139.2 3.2 35.2-22.4 54.4-57.6 51.2-97.6V337.6c0-6.4-3.2-12.8-9.6-12.8h-48c-6.4 0-9.6 3.2-12.8 9.6v422.4c0 19.2-12.8 38.4-32 44.8-22.4 6.4-44.8 3.2-64-9.6l-100.8-57.6c-3.2-3.2-6.4-6.4-6.4-12.8V300.8c0-6.4 3.2-9.6 9.6-12.8 128-70.4 252.8-144 379.2-212.8 3.2-3.2 9.6-3.2 16 0L899.2 288c6.4 3.2 9.6 6.4 6.4 12.8v425.6c0 6.4-3.2 9.6-6.4 12.8-123.2 70.4-248 139.2-371.2 209.6-6.4 3.2-12.8 9.6-19.2 3.2-32-19.2-64-38.4-97.6-57.6-3.2-3.2-9.6-3.2-12.8 0-12.8 9.6-28.8 16-44.8 22.4-6.4 3.2-16 3.2-19.2 9.6 6.4 6.4 12.8 12.8 22.4 16l113.6 67.2c25.6 16 57.6 16 83.2 3.2 126.4-70.4 251.2-142.4 377.6-212.8 25.6-12.8 41.6-41.6 41.6-70.4v-432c-1.6-28.8-16-54.4-38.4-67.2z" fill="#888888" /></svg>