<svg class="svg-icon" style="width: 1em; height: 1em;vertical-align: middle;fill: currentColor;overflow: hidden;" viewBox="0 0 1024 1024" version="1.1" xmlns="http://www.w3.org/2000/svg"><path d="M 512 960 c -247.424 0 -448 -200.576 -448 -448 S 264.576 64 512 64 s 448 200.576 448 448 s -200.576 448 -448 448 Z m 183.888 -306.04 c -30.556 0 -56.608 19.28 -67.116 46.448 L 398.784 646.6 c 0.944 -4.704 1.44 -9.568 1.44 -14.548 c 0 -30.836 -18.908 -57.152 -45.6 -67.856 l 34.32 -185.092 c 16.092 -3.16 29.648 -13.52 37.22 -27.668 l 215.884 -13.02 a 54.744 54.744 0 0 0 16.896 18.076 l -26.928 118.948 c -20.72 2.396 -37.84 16.64 -44.664 35.876 l -69.872 -0.368 a 32.788 32.788 0 0 0 -1.696 -2.604 l 16.284 -52.904 a 36.336 36.336 0 0 0 26.804 -35.144 c 0 -20.16 -16.144 -36.512 -36.056 -36.512 c -19.908 0 -36.056 16.352 -36.056 36.512 a 36.64 36.64 0 0 0 10.5 25.748 l -14.632 47.696 c -17.94 2.1 -31.92 17.356 -31.92 36.084 c 0 20.16 16.144 36.512 36.052 36.512 c 12.708 0 23.828 -6.696 30.252 -16.752 l 71.248 1.264 c 8.14 19.812 27.424 33.744 49.936 33.744 c 29.872 0 54.084 -24.52 54.084 -54.768 c 0 -19.328 -9.912 -36.28 -24.856 -46.032 l 26.612 -118.532 c 27.352 -2.732 48.724 -26.08 48.724 -54.496 C 742.76 280.52 718.544 256 688.68 256 c -27 0 -49.32 20.06 -53.36 46.24 l -203.708 12.292 c -4.968 -25.052 -26.812 -43.928 -53.016 -43.928 c -29.868 0 -54.084 24.52 -54.084 54.764 c 0 20.972 11.652 39.168 28.744 48.368 l -34.484 185.976 C 283.368 564.364 256 594.936 256 632.052 c 0 40.332 32.284 73.02 72.112 73.02 c 21.584 0 40.904 -9.652 54.12 -24.868 l 242.284 56.68 c 4.784 35.632 34.868 63.116 71.372 63.116 c 39.828 0 72.112 -32.692 72.112 -73.02 c 0 -40.328 -32.284 -73.02 -72.112 -73.02 Z" fill="#868686" /></svg>